<svg width="288" height="288"
  xmlns="http://www.w3.org/2000/svg" version="1.1"
  xmlns:xlink="http://www.w3.org/1999/xlink"
  xmlns:svgjs="http://svgjs.com/svgjs">
  <g>
    <svg xmlns="http://www.w3.org/2000/svg" enable-background="new 0 0 425.4 109" viewBox="0 0 425.4 109" width="288" height="288">
      <path d="M8.9 70C4.7 67.4 2.7 63.4 2.7 58c0-2.9.5-5 1.5-6.6 1-1.5 2.4-2.3 4.4-2.3 1.4 0 2.5.4 3.4 1.1.9.7 1.3 1.7 1.3 2.8 0 1-.1 1.9-.2 2.7 0 .2 0 .6-.1 1.1-.1.5-.1 1.1-.1 1.6 0 2.3 1.2 4.1 3.5 5.2 2.4 1.1 5.7 1.7 9.9 1.7 4.4 0 7.9-.8 10.4-2.4 2.5-1.6 3.7-3.8 3.7-6.7 0-1.8-.6-3.3-1.7-4.6-1.1-1.3-2.6-2.3-4.3-3.2s-4.1-1.9-7.3-3.2c-4-1.6-7.3-3-9.8-4.4-2.5-1.4-4.7-3.3-6.5-5.7s-2.7-5.4-2.7-9c0-3.7 1-7.1 3-10 2-2.9 4.9-5.2 8.7-6.8 3.8-1.6 8.2-2.4 13.3-2.4 3.8 0 7.3.6 10.5 1.7 3.2 1.1 5.7 2.8 7.6 5.1 1.9 2.3 2.8 5.1 2.8 8.4 0 3.3-.5 5.7-1.5 7.4-1 1.7-2.4 2.5-4.4 2.5-1.4 0-2.5-.4-3.4-1.2-.9-.8-1.4-1.8-1.4-3 0-1 .1-1.9.2-2.7.2-1.6.2-2.5.2-3 0-2.2-1.1-3.8-3.2-5-2.1-1.1-4.8-1.7-8-1.7-4.5 0-7.9.8-10.3 2.5C20.1 19.7 19 22 19 25c0 2 .6 3.7 1.8 5.1 1.2 1.4 2.7 2.6 4.6 3.5 1.8.9 4.4 2.1 7.6 3.4 4 1.6 7.1 3.1 9.5 4.4 2.4 1.3 4.4 3.1 6.1 5.3 1.7 2.2 2.5 5 2.5 8.3 0 6.1-2.3 10.9-7 14.2-4.7 3.3-10.9 5-18.7 5C18.6 73.9 13.1 72.6 8.9 70zM101 56.9c.4.6.6 1.5.6 2.6 0 2.1-.5 3.7-1.5 4.8-2.2 2.8-4.6 5-7.2 6.8-2.6 1.8-5.5 2.7-8.8 2.7-2.8 0-5-1-6.7-3-3 1.9-6.1 2.9-9.3 3-.7 10-2.2 18.4-4.6 25.2C61.2 105.6 57.7 109 53 109c-2.8 0-4.9-1-6.2-3-1.4-2-2-4.8-2-8.4 0-5.1 1.2-11 3.5-17.8s6-14.3 10.8-22.4c0-7.6-.1-12.9-.2-15.8-.1-1.5.5-2.7 1.8-3.6 1.2-.9 2.8-1.3 4.7-1.3 1.1 0 1.9.2 2.4.7.5.4.8 1.3.8 2.6 0 1.3 0 2.3.1 2.9 1.7-2.1 3.3-3.6 4.9-4.5 1.6-.9 3.3-1.4 5.1-1.4 2.9 0 5.3 1.2 7.1 3.5 1.8 2.3 2.8 5.4 2.8 9.2 0 2.8-.4 5.4-1.3 8-.9 2.6-2.1 5-3.7 7.1 1.1.3 2 .5 2.7.5 1.7 0 3.4-.6 4.9-1.9s3.6-3.3 6-6.2c.6-.7 1.3-1.1 2.1-1.1C100.1 55.9 100.7 56.2 101 56.9zM57.2 92.2c.9-6.1 1.5-13.7 1.8-22.8-2.2 5.2-4 10.2-5.3 14.9-1.3 4.7-1.9 8.7-1.9 11.9 0 1.7.2 2.9.6 3.8.4.9.8 1.3 1.4 1.3C55.1 101.3 56.2 98.3 57.2 92.2zM73.7 63.1c1.6-1.6 2.8-3.7 3.8-6.1s1.4-5 1.4-7.6c0-1.6-.3-2.7-.9-3.5-.6-.8-1.5-1.2-2.5-1.2-1.9 0-4.1 2-6.8 5.9-.1 2.3-.1 5.6-.1 10.1 0 2.4 0 4.2-.1 5.5C70.4 65.8 72.2 64.8 73.7 63.1z" fill="#000000"></path>
      <path d="M136.7,50.4c0.4,0.7,0.5,1.5,0.5,2.6c0,2.5-0.8,4-2.3,4.4c-3.1,1.1-6.6,1.7-10.3,1.9c-1,4.4-2.9,7.9-5.8,10.5
		c-2.9,2.6-6.2,3.9-9.9,3.9c-3.1,0-5.8-0.8-8-2.3c-2.2-1.5-3.9-3.5-5-6c-1.1-2.5-1.7-5.2-1.7-8.1c0-4,0.8-7.5,2.3-10.6
		c1.5-3.1,3.6-5.5,6.2-7.3c2.7-1.7,5.6-2.6,8.8-2.6c4,0,7.1,1.4,9.6,4.1s3.8,6.1,4.3,10.1c2.4-0.2,5.4-0.7,8.7-1.6
		c0.4-0.1,0.8-0.2,1.1-0.2C135.8,49.4,136.3,49.7,136.7,50.4z M113.8,63.4c1.2-1.4,2-3.3,2.5-5.9c-1.6-1.1-2.8-2.5-3.7-4.3
		c-0.9-1.8-1.3-3.6-1.3-5.6c0-0.8,0.1-1.7,0.2-2.5h-0.4c-2.1,0-3.8,1-5.2,3c-1.4,2-2.1,4.8-2.1,8.5c0,2.9,0.6,5,1.7,6.6
		c1.1,1.5,2.4,2.3,3.9,2.3C111.2,65.4,112.6,64.8,113.8,63.4z" fill="#000000"></path>
      <path d="M131.9,70.6c-0.8-2.1-1.2-5.4-1.2-10c0-6.8,1-13.2,2.9-19.3c0.5-1.5,1.2-2.6,2.3-3.3c1.1-0.7,2.6-1.1,4.5-1.1
		c1,0,1.8,0.1,2.2,0.4c0.4,0.3,0.6,0.8,0.6,1.5c0,0.8-0.4,2.7-1.2,5.6c-0.5,2.1-0.9,3.9-1.2,5.5s-0.6,3.5-0.8,5.8
		c1.7-4.5,3.6-8.1,5.8-10.9c2.1-2.8,4.2-4.8,6.3-6c2.1-1.2,3.9-1.8,5.7-1.8c3.4,0,5.1,1.7,5.1,5.1c0,2-0.6,5.7-1.7,11
		c-1,4.5-1.5,7.5-1.5,9c0,2.1,0.8,3.1,2.3,3.1c1,0,2.3-0.6,3.7-1.9c1.4-1.3,3.3-3.3,5.7-6.2c0.6-0.7,1.3-1.1,2.1-1.1
		c0.7,0,1.2,0.3,1.6,0.9s0.6,1.5,0.6,2.6c0,2.1-0.5,3.7-1.5,4.8c-2.2,2.8-4.6,5-7.2,6.8c-2.6,1.8-5.5,2.7-8.8,2.7
		c-2.7,0-4.7-0.8-6-2.3c-1.4-1.5-2-3.8-2-6.7c0-1.5,0.4-4.1,1.1-7.8c0.7-3.3,1-5.5,1-6.8c0-0.8-0.3-1.2-0.9-1.2
		c-0.7,0-1.6,0.9-2.8,2.6c-1.2,1.7-2.5,4-3.7,6.9c-1.3,2.9-2.3,5.9-3.1,9c-0.6,2.4-1.2,4.1-2,5c-0.8,0.9-1.9,1.3-3.5,1.3
		C134.1,73.7,132.7,72.7,131.9,70.6z" fill="#000000"></path>
      <path d="M177.5,73.6c-1.4-1.2-2.1-2.7-2.1-4.2c0-1.4,0.5-2.5,1.5-3.5c1-1,2.4-1.5,4.4-1.5c0.7,0,1.5,0.1,2.4,0.2
		c0.9,0.1,1.6,0.2,2.1,0.3c-0.1-1.4-0.4-2.6-0.9-3.8c-0.5-1.2-1.2-2.4-2.1-3.5c-0.8-1.1-1.6-2.1-2.3-2.9c-1.6,3.1-3.2,5.6-4.8,7.6
		c-1.6,2-3.3,4-5.2,5.8c-0.9,0.9-1.9,1.4-3,1.4c-0.8,0-1.5-0.3-2-0.9c-0.5-0.6-0.8-1.3-0.8-2.2c0-1,0.4-2,1.1-2.9l1-1.2
		c2.9-3.5,5-6.4,6.5-8.7c0.9-1.5,1.9-3.5,3.1-6c1.2-2.5,2.4-5.1,3.5-7.8c1-2.3,3-3.4,6.2-3.4c1.5,0,2.5,0.1,3,0.4
		c0.6,0.3,0.9,0.7,0.9,1.2c0,0.3-0.1,0.8-0.3,1.5c-0.2,0.7-0.5,1.4-0.9,2c-0.9,1.9-1.4,3.5-1.4,4.8c0,0.8,0.3,1.6,0.8,2.6
		c0.5,0.9,1.4,2.1,2.5,3.5c1.7,2.2,2.9,4,3.8,5.6c0.9,1.5,1.3,3.2,1.3,5c0,0.5-0.1,1.2-0.2,2.2c2.5-1,5.5-3.6,9-7.9
		c0.6-0.7,1.3-1.1,2.1-1.1c0.7,0,1.2,0.3,1.6,0.9c0.4,0.6,0.6,1.5,0.6,2.6c0,2-0.5,3.6-1.5,4.8c-2.6,3.2-5.1,5.4-7.4,6.6
		c-2.4,1.2-5.3,1.8-8.8,1.9c-2.1,1.8-4.6,2.7-7.4,2.7C181,75.4,178.9,74.8,177.5,73.6z" fill="#000000"></path>
      <path d="M243.8,50.4c0.4,0.7,0.5,1.5,0.5,2.6c0,2.5-0.8,4-2.3,4.4c-3.1,1.1-6.6,1.7-10.3,1.9c-1,4.4-2.9,7.9-5.9,10.5
		c-2.9,2.6-6.2,3.9-9.9,3.9c-3.1,0-5.8-0.8-8-2.3c-2.2-1.5-3.9-3.5-5-6c-1.1-2.5-1.7-5.2-1.7-8.1c0-4,0.8-7.5,2.3-10.6
		c1.5-3.1,3.6-5.5,6.2-7.3c2.7-1.7,5.6-2.6,8.8-2.6c4,0,7.1,1.4,9.6,4.1s3.8,6.1,4.2,10.1c2.4-0.2,5.4-0.7,8.7-1.6
		c0.4-0.1,0.8-0.2,1.1-0.2C242.9,49.4,243.5,49.7,243.8,50.4z M221,63.4c1.2-1.4,2-3.3,2.5-5.9c-1.6-1.1-2.8-2.5-3.7-4.3
		c-0.9-1.8-1.3-3.6-1.3-5.6c0-0.8,0.1-1.7,0.2-2.5h-0.4c-2.1,0-3.8,1-5.2,3c-1.4,2-2.1,4.8-2.1,8.5c0,2.9,0.6,5,1.7,6.6
		c1.1,1.5,2.4,2.3,3.9,2.3C218.3,65.4,219.8,64.8,221,63.4z" fill="#000000"></path>
      <path d="M239,70.6c-0.8-2.1-1.2-5.4-1.2-10c0-6.8,1-13.2,2.9-19.3c0.5-1.5,1.2-2.6,2.3-3.3c1.1-0.7,2.6-1.1,4.5-1.1
		c1,0,1.8,0.1,2.2,0.4c0.4,0.3,0.6,0.8,0.6,1.5c0,0.8-0.4,2.7-1.2,5.6c-0.5,2.1-0.9,3.9-1.2,5.5c-0.3,1.6-0.6,3.5-0.8,5.8
		c1.7-4.5,3.6-8.1,5.8-10.9c2.1-2.8,4.2-4.8,6.3-6c2.1-1.2,3.9-1.8,5.7-1.8c3.4,0,5.1,1.7,5.1,5.1c0,0.7-0.2,2.3-0.7,4.9
		c-0.4,2.1-0.6,3.4-0.6,3.9c0,1.8,0.6,2.7,2,2.7c1.5,0,3.3-1.1,5.6-3.4c0.7-0.7,1.4-1,2.1-1c0.7,0,1.2,0.3,1.6,0.9
		c0.4,0.6,0.6,1.4,0.6,2.4c0,1.9-0.5,3.4-1.6,4.5c-1.5,1.5-3.2,2.8-5.1,3.9c-2,1.1-4,1.6-6.2,1.6c-2.8,0-4.8-0.7-6.3-2.1
		c-1.4-1.4-2.1-3.3-2.1-5.7c0-0.8,0.1-1.6,0.2-2.3c0.1-1,0.2-1.7,0.2-2.1c0-0.8-0.3-1.2-0.9-1.2c-0.8,0-1.8,0.9-3.1,2.6
		c-1.3,1.7-2.5,4-3.8,6.9c-1.2,2.9-2.3,5.9-3,9c-0.6,2.4-1.2,4.1-2,5c-0.8,0.9-1.9,1.3-3.5,1.3C241.2,73.7,239.8,72.7,239,70.6z" fill="#000000"></path>
      <path d="M318,56.9c0.4,0.6,0.6,1.5,0.6,2.6c0,2.1-0.5,3.7-1.5,4.8c-2.4,2.8-4.8,5-7.4,6.8c-2.5,1.8-5.4,2.7-8.6,2.7
		c-2.7,0-4.7-0.8-6-2.3c-1.4-1.5-2-3.8-2-6.7c0-1.5,0.4-4.1,1.1-7.8c0.7-3.3,1-5.5,1-6.8c0-0.8-0.3-1.2-0.9-1.2
		c-0.7,0-1.6,0.9-2.9,2.6c-1.2,1.7-2.5,4-3.7,6.9c-1.2,2.9-2.3,5.9-3,9c-1,4.2-3.4,6.2-7.3,6.2c-1.6,0-2.6-0.6-3.1-1.7
		c-0.5-1.1-0.7-3.1-0.7-6c0-1.7,0-3,0.1-4l0.1-6.2c0-8,0.8-16.4,2.5-25c1.6-8.7,4.1-16,7.3-21.9c3.2-5.9,7-8.9,11.5-8.9
		c2.4,0,4.3,1,5.8,3.1c1.5,2.1,2.2,4.7,2.2,8c0,5.3-1.5,10.7-4.6,16.3c-3.1,5.6-8.1,12.2-15,19.8c-0.2,2.7-0.2,5.5-0.2,8.3
		c1.7-4.4,3.6-8,5.7-10.8c2.1-2.8,4.2-4.8,6.2-6c2.1-1.2,3.9-1.8,5.7-1.8c3.4,0,5.1,1.7,5.1,5.1c0,2-0.6,5.7-1.7,11
		c-1,4.5-1.5,7.5-1.5,9c0,2.1,0.8,3.1,2.3,3.1c1,0,2.3-0.6,3.7-1.9c1.4-1.3,3.3-3.3,5.7-6.2c0.6-0.7,1.3-1.1,2.1-1.1
		C317.1,55.9,317.6,56.2,318,56.9z M290.2,11.7c-1.1,2.7-2.2,6.3-3.3,10.8c-1.1,4.6-1.9,9.5-2.6,14.9c3.2-3.8,5.9-7.9,8-12.4
		c2.1-4.5,3.2-8.5,3.2-12.2c0-1.7-0.2-2.9-0.5-3.8c-0.4-0.9-0.9-1.3-1.6-1.3C292.3,7.7,291.3,9.1,290.2,11.7z" fill="#000000"></path>
      <path d="M348.7,56.9c0.4,0.6,0.6,1.5,0.6,2.6c0,2.1-0.5,3.7-1.5,4.8c-1.9,2.3-4.6,4.5-8.2,6.5c-3.5,2-7.3,3-11.3,3
		c-5.5,0-9.7-1.5-12.7-4.4c-3-3-4.5-7-4.5-12.2c0-3.6,0.8-6.9,2.3-10c1.5-3.1,3.6-5.6,6.3-7.4c2.7-1.8,5.7-2.7,9.1-2.7
		c3,0,5.4,0.9,7.3,2.7c1.8,1.8,2.7,4.2,2.7,7.3c0,3.6-1.3,6.7-3.9,9.2c-2.6,2.6-6.9,4.6-13.1,6.1c1.3,2.4,3.8,3.6,7.4,3.6
		c2.3,0,5-0.8,8-2.5c3-1.6,5.6-3.8,7.8-6.4c0.6-0.7,1.3-1.1,2.1-1.1C347.8,55.9,348.3,56.2,348.7,56.9z M322.6,48
		c-1.3,2.2-2,4.9-2,8.1v0.2c3.1-0.7,5.5-1.8,7.3-3.3c1.8-1.5,2.7-3.1,2.7-5.1c0-1-0.3-1.8-0.8-2.4c-0.5-0.6-1.3-0.9-2.2-0.9
		C325.5,44.6,323.9,45.7,322.6,48z" fill="#000000"></path>
      <path d="M374.1,56.9c0.4,0.6,0.6,1.5,0.6,2.6c0,2.1-0.5,3.7-1.5,4.8c-2.2,2.8-4.7,5-7.3,6.8c-2.6,1.8-5.6,2.7-8.9,2.7
		c-4.6,0-8-2.1-10.2-6.2c-2.2-4.2-3.3-9.5-3.3-16.1c0-6.3,0.8-13.6,2.5-21.7c1.6-8.1,4.1-15.1,7.3-20.9c3.2-5.8,7-8.7,11.4-8.7
		c2.5,0,4.5,1.2,5.9,3.5c1.4,2.3,2.1,5.6,2.1,9.9c0,6.2-1.7,13.4-5.1,21.5c-3.4,8.2-8.1,16.3-14,24.3c0.4,2.1,1,3.7,1.8,4.6
		c0.8,0.9,1.9,1.4,3.3,1.4c2.1,0,4-0.6,5.6-1.8c1.6-1.2,3.7-3.3,6.2-6.3c0.6-0.7,1.3-1.1,2.1-1.1C373.2,55.9,373.7,56.2,374.1,56.9z
		 M358.9,14.2c-1.5,4.3-2.8,9.7-4,16.1c-1.1,6.4-1.8,12.5-1.9,18.4c3.7-6.1,6.6-12.2,8.8-18.3c2.2-6.1,3.3-11.7,3.3-16.7
		c0-4-0.7-5.9-2.2-5.9C361.7,7.7,360.4,9.9,358.9,14.2z" fill="#000000"></path>
      <path d="M399.5,56.9c0.4,0.6,0.6,1.5,0.6,2.6c0,2.1-0.5,3.7-1.5,4.8c-2.2,2.8-4.7,5-7.3,6.8c-2.6,1.8-5.6,2.7-8.9,2.7
		c-4.6,0-8-2.1-10.2-6.2c-2.2-4.2-3.3-9.5-3.3-16.1c0-6.3,0.8-13.6,2.5-21.7c1.6-8.1,4.1-15.1,7.3-20.9c3.2-5.8,7-8.7,11.4-8.7
		c2.5,0,4.5,1.2,5.9,3.5c1.4,2.3,2.1,5.6,2.1,9.9c0,6.2-1.7,13.4-5.1,21.5c-3.4,8.2-8.1,16.3-14,24.3c0.4,2.1,1,3.7,1.8,4.6
		c0.8,0.9,1.9,1.4,3.3,1.4c2.1,0,4-0.6,5.6-1.8c1.6-1.2,3.7-3.3,6.2-6.3c0.6-0.7,1.3-1.1,2.1-1.1C398.6,55.9,399.2,56.2,399.5,56.9z
		 M384.3,14.2c-1.5,4.3-2.8,9.7-4,16.1c-1.1,6.4-1.8,12.5-1.9,18.4c3.7-6.1,6.6-12.2,8.8-18.3c2.2-6.1,3.3-11.7,3.3-16.7
		c0-4-0.7-5.9-2.2-5.9C387.2,7.7,385.8,9.9,384.3,14.2z" fill="#000000"></path>
      <path d="M399.2,71.4c-2.2-1.5-3.8-3.5-4.9-6s-1.6-5.2-1.6-8c0-4,0.7-7.5,2.2-10.6c1.5-3.1,3.5-5.5,6-7.3c2.5-1.7,5.4-2.6,8.6-2.6
		c3.1,0,5.7,0.8,7.9,2.3c2.2,1.5,3.8,3.5,4.9,6s1.6,5.2,1.6,8c0,4-0.8,7.5-2.3,10.6c-1.5,3.1-3.5,5.5-6.1,7.3
		c-2.6,1.7-5.4,2.6-8.5,2.6C403.9,73.7,401.3,72.9,399.2,71.4z M412.3,62.4c1.2-1.9,1.8-4.7,1.8-8.4c0-2.9-0.5-5-1.6-6.5
		c-1-1.5-2.3-2.2-3.7-2.2c-1.9,0-3.4,0.9-4.6,2.8c-1.2,1.9-1.8,4.7-1.8,8.5c0,3,0.5,5.1,1.6,6.6c1,1.4,2.3,2.1,3.9,2.1
		C409.6,65.3,411.1,64.3,412.3,62.4z" fill="#000000"></path>
    </svg>
  </g>
</svg>