<?xml version="1.0" encoding="utf-8"?>
<svg version="1.1" width="288" height="288"
  xmlns="http://www.w3.org/2000/svg"
  xmlns:xlink="http://www.w3.org/1999/xlink" x="0px" y="0px" viewBox="0 0 178.5 178.5" style="enable-background:new 0 0 178.5 178.5;" xml:space="preserve">
  <g>
    <path fill="#FFFFFF" d="M43.3,75.7c0-1.8-0.5-3.2-1.4-4.5c-0.9-1.2-2-2.2-3.3-2.9c-1.3-0.7-3-1.5-5.1-2.4c-1.8-0.7-3.1-1.3-4.1-1.8
		c-1-0.5-1.8-1.1-2.5-1.9c-0.7-0.8-1-1.7-1-2.7c0-1.6,0.6-2.8,1.9-3.7c1.3-0.9,3.1-1.3,5.5-1.3c1.7,0,3.1,0.3,4.3,0.9
		c1.1,0.6,1.7,1.5,1.7,2.7c0,0.2,0,0.8-0.1,1.6c-0.1,0.4-0.1,0.9-0.1,1.5c0,0.6,0.2,1.1,0.7,1.6c0.5,0.4,1.1,0.7,1.8,0.7
		c1,0,1.8-0.4,2.4-1.3c0.5-0.9,0.8-2.2,0.8-4c0-1.8-0.5-3.3-1.5-4.5c-1-1.2-2.4-2.1-4.1-2.8S35.6,50,33.6,50c-2.7,0-5.1,0.4-7.2,1.3
		c-2,0.9-3.6,2.1-4.7,3.7c-1.1,1.6-1.6,3.4-1.6,5.4c0,1.9,0.5,3.5,1.4,4.9c1,1.3,2.1,2.3,3.5,3.1s3.1,1.6,5.3,2.4
		c1.7,0.7,3,1.2,3.9,1.7c0.9,0.5,1.7,1,2.3,1.7c0.6,0.7,0.9,1.5,0.9,2.5c0,1.5-0.7,2.7-2,3.6c-1.3,0.9-3.2,1.3-5.6,1.3
		c-2.3,0-4.1-0.3-5.4-0.9c-1.3-0.6-1.9-1.6-1.9-2.8c0-0.3,0-0.6,0.1-0.9c0-0.3,0.1-0.5,0.1-0.6c0.1-0.4,0.1-0.9,0.1-1.5
		c0-0.6-0.2-1.1-0.7-1.5c-0.5-0.4-1.1-0.6-1.8-0.6c-1,0-1.8,0.4-2.4,1.2c-0.5,0.8-0.8,2-0.8,3.5c0,2.9,1.1,5.1,3.4,6.5
		c2.2,1.4,5.2,2.1,8.9,2.1c4.2,0,7.6-0.9,10.1-2.7C42,81.5,43.3,79,43.3,75.7z"/>
    <path fill="#FFFFFF" d="M162.2,72.5c-0.4-0.4-1-0.7-1.6-0.7h-0.4c0.3-1.5,0.5-2.5,0.5-3c0-0.9-0.2-1.6-0.7-2c-0.4-0.5-1.1-0.7-1.9-0.7
		c-0.9,0-1.9,0.3-3,1c-1.1,0.6-2.2,1.7-3.4,3.2c-1.1,1.5-2.2,3.5-3.1,5.9c0.1-1.2,0.3-2.3,0.4-3.1c0.2-0.8,0.4-1.8,0.7-2.9
		c0.4-1.6,0.6-2.6,0.6-3c0-0.4-0.1-0.7-0.3-0.8c-0.2-0.1-0.6-0.2-1.2-0.2c-1,0-1.8,0.2-2.4,0.6s-1,1-1.2,1.8
		c-0.5,1.5-0.8,3.1-1.1,4.7c-1.3,0.3-2.4,0.4-3.3,0.5c-0.2-2.2-1-4-2.3-5.4c-1.3-1.5-3-2.2-5.1-2.2c-1.7,0-3.3,0.5-4.7,1.4
		s-2.5,2.2-3.4,3.9c-0.8,1.7-1.2,3.6-1.2,5.7c0,0.6,0.1,1.1,0.1,1.6c-1.2,1.2-2.3,2.1-3.2,2.4c0.1-0.5,0.1-0.9,0.1-1.2
		c0-1-0.2-1.9-0.7-2.7c-0.5-0.8-1.1-1.8-2-3c-0.6-0.8-1.1-1.4-1.4-1.9s-0.4-1-0.4-1.4c0-0.7,0.3-1.6,0.8-2.6
		c0.2-0.4,0.3-0.7,0.5-1.1s0.2-0.6,0.2-0.8c0-0.3-0.2-0.5-0.5-0.7c-0.3-0.1-0.9-0.2-1.6-0.2c-1.7,0-2.8,0.6-3.3,1.8
		c-0.6,1.5-1.2,2.9-1.9,4.2c-0.6,1.4-1.2,2.4-1.7,3.3c-0.7,1.2-1.8,2.6-3.2,4.4c-0.3,0.3-0.6,0.6-0.9,0.9c-0.8,0.7-1.4,1-2,1
		c-0.8,0-1.2-0.6-1.2-1.7c0-0.8,0.3-2.4,0.8-4.8c0.6-2.9,0.9-4.8,0.9-5.9c0-1.8-0.9-2.7-2.7-2.7c-0.9,0-1.9,0.3-3,1
		c-1.1,0.6-2.2,1.7-3.4,3.2c-1.1,1.5-2.2,3.5-3.1,5.9c0.1-1.2,0.3-2.3,0.4-3.1c0.2-0.8,0.4-1.8,0.7-2.9c0.4-1.6,0.6-2.6,0.6-3
		c0-0.4-0.1-0.7-0.3-0.8c-0.2-0.1-0.6-0.2-1.2-0.2c-1,0-1.8,0.2-2.4,0.6s-1,1-1.2,1.8c-0.5,1.5-0.8,3.1-1.1,4.7
		c-1.3,0.3-2.4,0.4-3.3,0.5c-0.2-2.2-1-4-2.3-5.4c-1.3-1.5-3-2.2-5.1-2.2c-1.7,0-3.3,0.5-4.7,1.4s-2.5,2.2-3.4,3.9
		c-0.8,1.7-1.2,3.6-1.2,5.7c0,0.6,0.1,1.1,0.1,1.6c-0.6,0.7-1.2,1.2-1.6,1.6c-0.8,0.7-1.7,1-2.6,1c-0.4,0-0.9-0.1-1.5-0.3
		c0.8-1.1,1.5-2.4,2-3.8c0.5-1.4,0.7-2.8,0.7-4.3c0-2-0.5-3.7-1.5-5c-1-1.3-2.3-1.9-3.8-1.9c-1,0-1.9,0.2-2.8,0.7
		c-0.9,0.5-1.8,1.3-2.6,2.4c0-0.3,0-0.9,0-1.6c0-0.7-0.2-1.2-0.4-1.4c-0.3-0.2-0.7-0.4-1.3-0.4c-1,0-1.8,0.2-2.5,0.7
		c-0.7,0.5-1,1.1-1,1.9c0.1,1.6,0.1,4.4,0.1,8.5c-2.6,4.4-4.6,8.4-5.8,12.1c-1.3,3.7-1.9,6.9-1.9,9.6c0,1.9,0.4,3.4,1.1,4.5
		c0.7,1.1,1.8,1.6,3.4,1.6c2.5,0,4.4-1.8,5.7-5.4c1.3-3.6,2.1-8.1,2.5-13.5c1.7,0,3.4-0.6,5-1.6c0.9,1.1,2.1,1.6,3.6,1.6
		c1.8,0,3.3-0.5,4.7-1.4c0.8-0.5,1.5-1.2,2.2-1.9c0.5,0.8,1.2,1.5,2,2.1c1.2,0.8,2.6,1.2,4.3,1.2c2,0,3.8-0.7,5.3-2.1
		c1.6-1.4,2.6-3.3,3.1-5.6c1.1,0,2.2-0.2,3.3-0.4c0,0.4,0,0.7,0,1.1c0,2.5,0.2,4.3,0.7,5.4c0.4,1.1,1.2,1.7,2.2,1.7
		c0.9,0,1.5-0.2,1.9-0.7c0.4-0.5,0.8-1.4,1.1-2.7c0.4-1.7,1-3.3,1.7-4.9c0.7-1.5,1.4-2.8,2-3.7c0.7-0.9,1.2-1.4,1.5-1.4
		c0.3,0,0.5,0.2,0.5,0.7c0,0.7-0.2,1.9-0.5,3.7c-0.4,2-0.6,3.4-0.6,4.2c0,1.6,0.4,2.8,1.1,3.6c0.7,0.8,1.8,1.2,3.2,1.2
		c1.8,0,3.3-0.5,4.7-1.4c1.4-1,2.7-2.2,3.9-3.7c0.1-0.2,0.3-0.4,0.4-0.6c0.1-0.2,0.3-0.4,0.4-0.5c0.9-1.1,1.7-2.5,2.6-4.1
		c0.4,0.4,0.8,1,1.3,1.6c0.4,0.6,0.8,1.2,1.1,1.9s0.5,1.3,0.5,2.1c-0.3,0-0.6-0.1-1.1-0.1c-0.5-0.1-0.9-0.1-1.3-0.1
		c-1,0-1.8,0.3-2.4,0.8c-0.5,0.5-0.8,1.2-0.8,1.9c0,0.8,0.4,1.6,1.2,2.3c0.8,0.7,1.9,1,3.3,1c1.5,0,2.9-0.5,4-1.4
		c1.9-0.1,3.5-0.4,4.7-1c0.8-0.4,1.6-1,2.4-1.8c0.5,0.8,1.2,1.5,2,2.1c1.2,0.8,2.6,1.2,4.3,1.2c2,0,3.8-0.7,5.3-2.1
		c1.6-1.4,2.6-3.3,3.1-5.6c1.1,0,2.2-0.2,3.3-0.4c0,0.4,0,0.7,0,1.1c0,2.5,0.2,4.3,0.7,5.4c0.4,1.1,1.2,1.7,2.2,1.7
		c0.9,0,1.5-0.2,1.9-0.7c0.4-0.4,0.7-1.3,1-2.7c0.4-1.7,1-3.3,1.6-4.9c0.7-1.5,1.3-2.8,2-3.7c0.7-0.9,1.2-1.4,1.6-1.4
		c0.1,0,0.3,0.1,0.4,0.2c0.1,0.1,0.1,0.3,0.1,0.5c0,0.2,0,0.5-0.1,0.9c-0.1,0.6-0.1,1.2-0.1,1.7c0,1,0.3,1.7,0.8,2.3
		c0.5,0.6,1.2,0.8,2,0.8c1,0,1.9-0.4,2.7-1.1c0.8-0.7,1.4-1.6,1.9-2.6c0.2-0.4,0.3-0.8,0.3-1.2C162.9,73.4,162.7,72.9,162.2,72.5z
		 M46.5,95.8c-0.5,3.3-1.1,4.9-1.9,4.9c-0.3,0-0.5-0.2-0.7-0.7c-0.2-0.5-0.3-1.2-0.3-2.1c0-1.7,0.4-3.9,1-6.4c0.7-2.5,1.7-5.2,2.9-8
		C47.3,88.4,47,92.5,46.5,95.8z M57.5,76.9c-0.5,1.3-1.2,2.4-2,3.3c-0.9,0.9-1.8,1.4-2.8,1.7c0-0.7,0-1.7,0-3c0-2.4,0-4.2,0-5.4
		c1.4-2.1,2.6-3.2,3.7-3.2c0.6,0,1,0.2,1.3,0.7c0.3,0.4,0.5,1.1,0.5,1.9C58.2,74.2,58,75.6,57.5,76.9z M77,80.3
		c-0.7,0.7-1.4,1.1-2.3,1.1c-0.8,0-1.5-0.4-2.1-1.2c-0.6-0.8-0.9-2-0.9-3.5c0-2,0.4-3.5,1.1-4.6c0.7-1.1,1.7-1.6,2.8-1.6h0.2
		c-0.1,0.4-0.1,0.9-0.1,1.3c0,1.1,0.2,2.1,0.7,3c0.5,1,1.1,1.7,2,2.3C78.1,78.5,77.7,79.6,77,80.3z M134.7,80.3
		c-0.7,0.7-1.4,1.1-2.3,1.1c-0.8,0-1.5-0.4-2.1-1.2c-0.6-0.8-0.9-2-0.9-3.5c0-2,0.4-3.5,1.1-4.6c0.7-1.1,1.7-1.6,2.8-1.6h0.2
		c-0.1,0.4-0.1,0.9-0.1,1.3c0,1.1,0.2,2.1,0.7,3c0.5,1,1.1,1.7,2,2.3C135.8,78.5,135.4,79.6,134.7,80.3z"/>
    <path fill="#FFFFFF" d="M157.3,111.1c-1.2-0.8-2.6-1.2-4.2-1.2c-1.7,0-3.2,0.5-4.6,1.4c-1.4,0.9-2.5,2.2-3.3,3.9
		c-0.8,1.7-1.2,3.6-1.2,5.7c0,0.1,0,0.2,0,0.3c-1.1,1.3-2.1,2.3-2.9,2.9c-0.9,0.7-1.9,1-3,1c-0.7,0-1.3-0.2-1.8-0.7
		c-0.4-0.5-0.8-1.3-1-2.5c3.2-4.3,5.7-8.7,7.5-13.1c1.8-4.4,2.8-8.3,2.8-11.6c0-2.3-0.4-4.1-1.2-5.4c-0.8-1.2-1.8-1.9-3.2-1.9
		c-2.4,0-4.4,1.6-6.2,4.7c-1.7,3.1-3,6.9-3.9,11.3c-0.9,4.4-1.3,8.3-1.3,11.7c0,0.9,0,1.8,0.1,2.6c-0.2,0.1-0.4,0.2-0.6,0.5
		c-1.3,1.6-2.5,2.7-3.3,3.4c-0.9,0.7-1.9,1-3,1c-0.7,0-1.3-0.2-1.8-0.7c-0.4-0.5-0.8-1.3-1-2.5c3.2-4.3,5.7-8.7,7.5-13.1
		c1.8-4.4,2.8-8.3,2.8-11.6c0-2.3-0.4-4.1-1.2-5.4c-0.8-1.2-1.8-1.9-3.2-1.9c-2.4,0-4.4,1.6-6.2,4.7c-1.7,3.1-3,6.9-3.9,11.3
		c-0.9,4.4-1.3,8.3-1.3,11.7c0,0.9,0,1.8,0.1,2.6c-0.2,0.1-0.4,0.2-0.6,0.5c-1.2,1.4-2.6,2.6-4.2,3.5s-3,1.3-4.3,1.3
		c-2,0-3.3-0.6-4-1.9c3.3-0.8,5.6-1.9,7-3.3c1.4-1.4,2.1-3,2.1-5c0-1.7-0.5-3-1.5-3.9c-1-1-2.3-1.4-3.9-1.4c-1.8,0-3.5,0.5-4.9,1.5
		c-1.4,1-2.6,2.3-3.4,4c-0.8,1.7-1.2,3.5-1.2,5.4c0,0.2,0,0.3,0,0.5c-1.1,1.3-2,2.2-2.6,2.8c-0.8,0.7-1.4,1-2,1
		c-0.8,0-1.2-0.6-1.2-1.7c0-0.8,0.3-2.4,0.8-4.8c0.6-2.9,0.9-4.8,0.9-5.9c0-1.8-0.9-2.7-2.7-2.7c-0.9,0-1.9,0.3-3,1
		c-1.1,0.6-2.2,1.7-3.4,3.2c-1.1,1.5-2.2,3.4-3.1,5.8c0-1.5,0-3,0.1-4.5c3.7-4.1,6.4-7.6,8.1-10.6c1.7-3,2.5-6,2.5-8.8
		c0-1.8-0.4-3.2-1.2-4.3c-0.8-1.1-1.8-1.7-3.1-1.7c-2.4,0-4.5,1.6-6.2,4.8c-1.7,3.2-3,7.1-3.9,11.8c-0.9,4.7-1.3,9.2-1.3,13.5l0,3.4
		c0,0.5,0,1.2,0,2.1c0,1.6,0.1,2.7,0.4,3.3c0.3,0.6,0.8,0.9,1.7,0.9c2.1,0,3.4-1.1,3.9-3.4c0.4-1.7,1-3.3,1.6-4.9
		c0.7-1.5,1.3-2.8,2-3.7c0.7-0.9,1.2-1.4,1.6-1.4c0.3,0,0.5,0.2,0.5,0.7c0,0.7-0.2,1.9-0.5,3.7c-0.4,2-0.6,3.4-0.6,4.2
		c0,1.6,0.4,2.8,1.1,3.6c0.7,0.8,1.8,1.2,3.2,1.2c1.7,0,3.3-0.5,4.6-1.4c1.1-0.7,2.1-1.7,3.1-2.7c0.4,0.6,0.8,1.2,1.3,1.8
		c1.6,1.6,3.9,2.4,6.8,2.4c2.2,0,4.2-0.5,6.1-1.6c1.9-1.1,3.3-2.2,4.4-3.5c0.2,0.6,0.5,1.2,0.7,1.7c1.2,2.2,3,3.4,5.5,3.4
		c1.8,0,3.4-0.5,4.8-1.4c1.4-0.9,2.7-2.2,3.9-3.6c0.2,0.6,0.5,1.2,0.7,1.7c1.2,2.2,3,3.4,5.5,3.4c1.8,0,3.4-0.5,4.8-1.4
		c1.1-0.7,2.1-1.6,3.1-2.6c0.6,1.1,1.4,2.1,2.4,2.8c1.2,0.8,2.6,1.2,4.2,1.2c1.7,0,3.2-0.5,4.6-1.4c1.4-0.9,2.5-2.2,3.3-3.9
		c0.8-1.7,1.2-3.6,1.2-5.7c0-1.5-0.3-3-0.9-4.3C159.4,113.1,158.5,112,157.3,111.1z M82,102.2c0.6-2.4,1.2-4.4,1.8-5.8
		c0.6-1.4,1.2-2.2,1.7-2.2c0.4,0,0.6,0.2,0.8,0.7c0.2,0.5,0.3,1.2,0.3,2.1c0,2-0.6,4.1-1.7,6.6c-1.1,2.4-2.6,4.6-4.3,6.7
		C80.9,107.3,81.4,104.6,82,102.2z M101.4,120.2c0-1.7,0.4-3.2,1.1-4.4c0.7-1.2,1.6-1.8,2.6-1.8c0.5,0,0.9,0.2,1.2,0.5
		c0.3,0.3,0.4,0.7,0.4,1.3c0,1-0.5,1.9-1.4,2.7C104.4,119.3,103.1,119.9,101.4,120.2L101.4,120.2z M121.1,106.3
		c0.6-3.4,1.3-6.3,2.1-8.7c0.8-2.3,1.5-3.5,2.2-3.5c0.8,0,1.2,1.1,1.2,3.2c0,2.7-0.6,5.7-1.8,9c-1.2,3.3-2.8,6.6-4.7,9.8
		C120.2,113.1,120.5,109.8,121.1,106.3z M136.1,106.3c0.6-3.4,1.3-6.3,2.1-8.7c0.8-2.3,1.5-3.5,2.2-3.5c0.8,0,1.2,1.1,1.2,3.2
		c0,2.7-0.6,5.7-1.8,9c-1.2,3.3-2.8,6.6-4.7,9.8C135.1,113.1,135.5,109.8,136.1,106.3z M154.6,123.6c-0.7,1-1.5,1.6-2.4,1.6
		c-0.8,0-1.5-0.4-2.1-1.1s-0.8-1.9-0.8-3.5c0-2,0.3-3.5,1-4.6c0.7-1,1.5-1.5,2.5-1.5c0.8,0,1.5,0.4,2,1.2c0.6,0.8,0.8,1.9,0.8,3.5
		C155.6,121.1,155.3,122.6,154.6,123.6z"/>
  </g>
</svg>
